<?xml version="1.0" encoding="UTF-8" standalone="no"?>
<!DOCTYPE svg PUBLIC "-//W3C//DTD SVG 1.1//EN"
 "http://www.w3.org/Graphics/SVG/1.1/DTD/svg11.dtd">
<!-- Generated by graphviz version 9.0.0 (20230911.1827)
 -->
<!-- Title: RadiationTestArchitecture Pages: 1 -->
<svg width="1365pt" height="660pt"
 viewBox="0.00 0.00 1365.00 660.25" xmlns="http://www.w3.org/2000/svg" xmlns:xlink="http://www.w3.org/1999/xlink">
<g id="graph0" class="graph" transform="scale(1 1) rotate(0) translate(4 656.25)">
<title>RadiationTestArchitecture</title>
<polygon fill="white" stroke="none" points="-4,4 -4,-656.25 1361,-656.25 1361,4 -4,4"/>
<text text-anchor="middle" x="678.5" y="-633.05" font-family="Helvetica,sans-Serif" font-size="16.00">Radiation Test Infrastructure Architecture</text>
<g id="clust1" class="cluster">
<title>cluster_data</title>
<path fill="#e3f2fd" stroke="#1976d2" d="M20,-389C20,-389 451,-389 451,-389 457,-389 463,-395 463,-401 463,-401 463,-604.75 463,-604.75 463,-610.75 457,-616.75 451,-616.75 451,-616.75 20,-616.75 20,-616.75 14,-616.75 8,-610.75 8,-604.75 8,-604.75 8,-401 8,-401 8,-395 14,-389 20,-389"/>
<text text-anchor="middle" x="235.5" y="-597.55" font-family="Helvetica,sans-Serif" font-size="16.00">Data Synthesis</text>
</g>
<g id="clust2" class="cluster">
<title>cluster_generators</title>
<polygon fill="#e1f5fe" stroke="#0288d1" points="16,-397 16,-476.5 455,-476.5 455,-397 16,-397"/>
<text text-anchor="middle" x="235.5" y="-457.3" font-family="Helvetica,sans-Serif" font-size="16.00">Generators</text>
</g>
<g id="clust3" class="cluster">
<title>cluster_emu</title>
<path fill="#e8f5e9" stroke="#388e3c" d="M483,-248.75C483,-248.75 725,-248.75 725,-248.75 731,-248.75 737,-254.75 737,-260.75 737,-260.75 737,-470.75 737,-470.75 737,-476.75 731,-482.75 725,-482.75 725,-482.75 483,-482.75 483,-482.75 477,-482.75 471,-476.75 471,-470.75 471,-470.75 471,-260.75 471,-260.75 471,-254.75 477,-248.75 483,-248.75"/>
<text text-anchor="middle" x="604" y="-463.55" font-family="Helvetica,sans-Serif" font-size="16.00">Sensor Emulation Layer</text>
</g>
<g id="clust4" class="cluster">
<title>cluster_shims</title>
<polygon fill="#f1f8e9" stroke="#689f38" points="479,-256.75 479,-336.25 729,-336.25 729,-256.75 479,-256.75"/>
<text text-anchor="middle" x="604" y="-317.05" font-family="Helvetica,sans-Serif" font-size="16.00">I/O Shims</text>
</g>
<g id="clust5" class="cluster">
<title>cluster_framework</title>
<path fill="#fff3e0" stroke="#f57c00" d="M757,-8C757,-8 1041,-8 1041,-8 1047,-8 1053,-14 1053,-20 1053,-20 1053,-324.25 1053,-324.25 1053,-330.25 1047,-336.25 1041,-336.25 1041,-336.25 757,-336.25 757,-336.25 751,-336.25 745,-330.25 745,-324.25 745,-324.25 745,-20 745,-20 745,-14 751,-8 757,-8"/>
<text text-anchor="middle" x="899" y="-317.05" font-family="Helvetica,sans-Serif" font-size="16.00">Test Framework</text>
</g>
<g id="clust6" class="cluster">
<title>cluster_runner</title>
<polygon fill="#fff8e1" stroke="#ffa000" points="753,-16 753,-202.25 915,-202.25 915,-16 753,-16"/>
<text text-anchor="middle" x="834" y="-183.05" font-family="Helvetica,sans-Serif" font-size="16.00">Test Runner</text>
</g>
<g id="clust7" class="cluster">
<title>cluster_sut</title>
<path fill="#fce4ec" stroke="#c2185b" d="M1077,-114.75C1077,-114.75 1337,-114.75 1337,-114.75 1343,-114.75 1349,-120.75 1349,-126.75 1349,-126.75 1349,-324.25 1349,-324.25 1349,-330.25 1343,-336.25 1337,-336.25 1337,-336.25 1077,-336.25 1077,-336.25 1071,-336.25 1065,-330.25 1065,-324.25 1065,-324.25 1065,-126.75 1065,-126.75 1065,-120.75 1071,-114.75 1077,-114.75"/>
<text text-anchor="middle" x="1207" y="-317.05" font-family="Helvetica,sans-Serif" font-size="16.00">System Under Test</text>
</g>
<g id="clust8" class="cluster">
<title>cluster_ekf</title>
<polygon fill="#fff0f5" stroke="#e91e63" points="1073,-122.75 1073,-202.25 1341,-202.25 1341,-122.75 1073,-122.75"/>
<text text-anchor="middle" x="1207" y="-183.05" font-family="Helvetica,sans-Serif" font-size="16.00">EKF3 Navigation</text>
</g>
<!-- orchestrator -->
<g id="node1" class="node">
<title>orchestrator</title>
<path fill="#bbdefb" stroke="#1976d2" d="M334.25,-581.25C334.25,-581.25 271.75,-581.25 271.75,-581.25 265.75,-581.25 259.75,-575.25 259.75,-569.25 259.75,-569.25 259.75,-557.25 259.75,-557.25 259.75,-551.25 265.75,-545.25 271.75,-545.25 271.75,-545.25 334.25,-545.25 334.25,-545.25 340.25,-545.25 346.25,-551.25 346.25,-557.25 346.25,-557.25 346.25,-569.25 346.25,-569.25 346.25,-575.25 340.25,-581.25 334.25,-581.25"/>
<text text-anchor="middle" x="303" y="-566.3" font-family="Helvetica,sans-Serif" font-size="11.00">Dataset</text>
<text text-anchor="middle" x="303" y="-552.8" font-family="Helvetica,sans-Serif" font-size="11.00">Orchestrator</text>
</g>
<!-- imu_gen -->
<g id="node2" class="node">
<title>imu_gen</title>
<path fill="#b3e5fc" stroke="black" d="M326.75,-441C326.75,-441 279.25,-441 279.25,-441 273.25,-441 267.25,-435 267.25,-429 267.25,-429 267.25,-417 267.25,-417 267.25,-411 273.25,-405 279.25,-405 279.25,-405 326.75,-405 326.75,-405 332.75,-405 338.75,-411 338.75,-417 338.75,-417 338.75,-429 338.75,-429 338.75,-435 332.75,-441 326.75,-441"/>
<text text-anchor="middle" x="303" y="-426.05" font-family="Helvetica,sans-Serif" font-size="11.00">IMU</text>
<text text-anchor="middle" x="303" y="-412.55" font-family="Helvetica,sans-Serif" font-size="11.00">Generator</text>
</g>
<!-- orchestrator&#45;&gt;imu_gen -->
<!-- gps_gen -->
<g id="node3" class="node">
<title>gps_gen</title>
<path fill="#b3e5fc" stroke="black" d="M434.75,-441C434.75,-441 387.25,-441 387.25,-441 381.25,-441 375.25,-435 375.25,-429 375.25,-429 375.25,-417 375.25,-417 375.25,-411 381.25,-405 387.25,-405 387.25,-405 434.75,-405 434.75,-405 440.75,-405 446.75,-411 446.75,-417 446.75,-417 446.75,-429 446.75,-429 446.75,-435 440.75,-441 434.75,-441"/>
<text text-anchor="middle" x="411" y="-426.05" font-family="Helvetica,sans-Serif" font-size="11.00">GPS</text>
<text text-anchor="middle" x="411" y="-412.55" font-family="Helvetica,sans-Serif" font-size="11.00">Generator</text>
</g>
<!-- orchestrator&#45;&gt;gps_gen -->
<!-- baro_gen -->
<g id="node4" class="node">
<title>baro_gen</title>
<path fill="#b3e5fc" stroke="black" d="M86.25,-441C86.25,-441 35.75,-441 35.75,-441 29.75,-441 23.75,-435 23.75,-429 23.75,-429 23.75,-417 23.75,-417 23.75,-411 29.75,-405 35.75,-405 35.75,-405 86.25,-405 86.25,-405 92.25,-405 98.25,-411 98.25,-417 98.25,-417 98.25,-429 98.25,-429 98.25,-435 92.25,-441 86.25,-441"/>
<text text-anchor="middle" x="61" y="-426.05" font-family="Helvetica,sans-Serif" font-size="11.00">Barometer</text>
<text text-anchor="middle" x="61" y="-412.55" font-family="Helvetica,sans-Serif" font-size="11.00">Generator</text>
</g>
<!-- orchestrator&#45;&gt;baro_gen -->
<!-- mag_gen -->
<g id="node5" class="node">
<title>mag_gen</title>
<path fill="#b3e5fc" stroke="black" d="M219.5,-441C219.5,-441 146.5,-441 146.5,-441 140.5,-441 134.5,-435 134.5,-429 134.5,-429 134.5,-417 134.5,-417 134.5,-411 140.5,-405 146.5,-405 146.5,-405 219.5,-405 219.5,-405 225.5,-405 231.5,-411 231.5,-417 231.5,-417 231.5,-429 231.5,-429 231.5,-435 225.5,-441 219.5,-441"/>
<text text-anchor="middle" x="183" y="-426.05" font-family="Helvetica,sans-Serif" font-size="11.00">Magnetometer</text>
<text text-anchor="middle" x="183" y="-412.55" font-family="Helvetica,sans-Serif" font-size="11.00">Generator</text>
</g>
<!-- orchestrator&#45;&gt;mag_gen -->
<!-- emulator -->
<g id="node6" class="node">
<title>emulator</title>
<path fill="#c8e6c9" stroke="#388e3c" d="M639.75,-447.25C639.75,-447.25 568.25,-447.25 568.25,-447.25 562.25,-447.25 556.25,-441.25 556.25,-435.25 556.25,-435.25 556.25,-410.75 556.25,-410.75 556.25,-404.75 562.25,-398.75 568.25,-398.75 568.25,-398.75 639.75,-398.75 639.75,-398.75 645.75,-398.75 651.75,-404.75 651.75,-410.75 651.75,-410.75 651.75,-435.25 651.75,-435.25 651.75,-441.25 645.75,-447.25 639.75,-447.25"/>
<text text-anchor="middle" x="604" y="-432.8" font-family="Helvetica,sans-Serif" font-size="11.00">Sensor</text>
<text text-anchor="middle" x="604" y="-419.3" font-family="Helvetica,sans-Serif" font-size="11.00">Emulator</text>
<text text-anchor="middle" x="604" y="-405.8" font-family="Helvetica,sans-Serif" font-size="11.00">(LD_PRELOAD)</text>
</g>
<!-- orchestrator&#45;&gt;emulator -->
<g id="edge1" class="edge">
<title>orchestrator&#45;&gt;emulator</title>
<path fill="none" stroke="#1976d2" d="M346.45,-563C429.8,-563 604,-563 604,-563 604,-563 604,-459.22 604,-459.22"/>
<polygon fill="#1976d2" stroke="#1976d2" points="607.5,-459.22 604,-449.22 600.5,-459.22 607.5,-459.22"/>
<text text-anchor="middle" x="524" y="-506.75" font-family="Helvetica,sans-Serif" font-size="10.00" fill="#1976d2">CSV</text>
<text text-anchor="middle" x="524" y="-494" font-family="Helvetica,sans-Serif" font-size="10.00" fill="#1976d2">datasets</text>
</g>
<!-- spi_shim -->
<g id="node7" class="node">
<title>spi_shim</title>
<path fill="#dcedc8" stroke="black" d="M709,-300.75C709,-300.75 679,-300.75 679,-300.75 673,-300.75 667,-294.75 667,-288.75 667,-288.75 667,-276.75 667,-276.75 667,-270.75 673,-264.75 679,-264.75 679,-264.75 709,-264.75 709,-264.75 715,-264.75 721,-270.75 721,-276.75 721,-276.75 721,-288.75 721,-288.75 721,-294.75 715,-300.75 709,-300.75"/>
<text text-anchor="middle" x="694" y="-285.8" font-family="Helvetica,sans-Serif" font-size="11.00">SPI</text>
<text text-anchor="middle" x="694" y="-272.3" font-family="Helvetica,sans-Serif" font-size="11.00">Shim</text>
</g>
<!-- emulator&#45;&gt;spi_shim -->
<!-- i2c_shim -->
<g id="node8" class="node">
<title>i2c_shim</title>
<path fill="#dcedc8" stroke="black" d="M529,-300.75C529,-300.75 499,-300.75 499,-300.75 493,-300.75 487,-294.75 487,-288.75 487,-288.75 487,-276.75 487,-276.75 487,-270.75 493,-264.75 499,-264.75 499,-264.75 529,-264.75 529,-264.75 535,-264.75 541,-270.75 541,-276.75 541,-276.75 541,-288.75 541,-288.75 541,-294.75 535,-300.75 529,-300.75"/>
<text text-anchor="middle" x="514" y="-285.8" font-family="Helvetica,sans-Serif" font-size="11.00">I²C</text>
<text text-anchor="middle" x="514" y="-272.3" font-family="Helvetica,sans-Serif" font-size="11.00">Shim</text>
</g>
<!-- emulator&#45;&gt;i2c_shim -->
<!-- uart_shim -->
<g id="node9" class="node">
<title>uart_shim</title>
<path fill="#dcedc8" stroke="black" d="M619,-300.75C619,-300.75 589,-300.75 589,-300.75 583,-300.75 577,-294.75 577,-288.75 577,-288.75 577,-276.75 577,-276.75 577,-270.75 583,-264.75 589,-264.75 589,-264.75 619,-264.75 619,-264.75 625,-264.75 631,-270.75 631,-276.75 631,-276.75 631,-288.75 631,-288.75 631,-294.75 625,-300.75 619,-300.75"/>
<text text-anchor="middle" x="604" y="-285.8" font-family="Helvetica,sans-Serif" font-size="11.00">UART</text>
<text text-anchor="middle" x="604" y="-272.3" font-family="Helvetica,sans-Serif" font-size="11.00">Shim</text>
</g>
<!-- emulator&#45;&gt;uart_shim -->
<!-- multirad -->
<g id="node10" class="node">
<title>multirad</title>
<path fill="#ffe0b2" stroke="#f57c00" d="M934,-300.75C934,-300.75 882,-300.75 882,-300.75 876,-300.75 870,-294.75 870,-288.75 870,-288.75 870,-276.75 870,-276.75 870,-270.75 876,-264.75 882,-264.75 882,-264.75 934,-264.75 934,-264.75 940,-264.75 946,-270.75 946,-276.75 946,-276.75 946,-288.75 946,-288.75 946,-294.75 940,-300.75 934,-300.75"/>
<text text-anchor="middle" x="908" y="-285.8" font-family="Helvetica,sans-Serif" font-size="11.00">MultiRad</text>
<text text-anchor="middle" x="908" y="-272.3" font-family="Helvetica,sans-Serif" font-size="11.00">Framework</text>
</g>
<!-- emulator&#45;&gt;multirad -->
<g id="edge15" class="edge">
<title>emulator&#45;&gt;multirad</title>
<path fill="none" stroke="#388e3c" d="M652.17,-423C737.89,-423 908,-423 908,-423 908,-423 908,-312.6 908,-312.6"/>
<polygon fill="#388e3c" stroke="#388e3c" points="911.5,-312.6 908,-302.6 904.5,-312.6 911.5,-312.6"/>
<text text-anchor="middle" x="830.12" y="-360.25" font-family="Helvetica,sans-Serif" font-size="10.00" fill="#388e3c">Virtual</text>
<text text-anchor="middle" x="830.12" y="-347.5" font-family="Helvetica,sans-Serif" font-size="10.00" fill="#388e3c">I/O</text>
</g>
<!-- case_runner -->
<g id="node11" class="node">
<title>case_runner</title>
<path fill="#ffecb3" stroke="black" d="M804.5,-166.75C804.5,-166.75 773.5,-166.75 773.5,-166.75 767.5,-166.75 761.5,-160.75 761.5,-154.75 761.5,-154.75 761.5,-142.75 761.5,-142.75 761.5,-136.75 767.5,-130.75 773.5,-130.75 773.5,-130.75 804.5,-130.75 804.5,-130.75 810.5,-130.75 816.5,-136.75 816.5,-142.75 816.5,-142.75 816.5,-154.75 816.5,-154.75 816.5,-160.75 810.5,-166.75 804.5,-166.75"/>
<text text-anchor="middle" x="789" y="-151.8" font-family="Helvetica,sans-Serif" font-size="11.00">Case</text>
<text text-anchor="middle" x="789" y="-138.3" font-family="Helvetica,sans-Serif" font-size="11.00">Runner</text>
</g>
<!-- multirad&#45;&gt;case_runner -->
<!-- output_vec -->
<g id="node12" class="node">
<title>output_vec</title>
<path fill="#ffecb3" stroke="black" d="M895.12,-166.75C895.12,-166.75 864.88,-166.75 864.88,-166.75 858.88,-166.75 852.88,-160.75 852.88,-154.75 852.88,-154.75 852.88,-142.75 852.88,-142.75 852.88,-136.75 858.88,-130.75 864.88,-130.75 864.88,-130.75 895.12,-130.75 895.12,-130.75 901.12,-130.75 907.12,-136.75 907.12,-142.75 907.12,-142.75 907.12,-154.75 907.12,-154.75 907.12,-160.75 901.12,-166.75 895.12,-166.75"/>
<text text-anchor="middle" x="880" y="-151.8" font-family="Helvetica,sans-Serif" font-size="11.00">Output</text>
<text text-anchor="middle" x="880" y="-138.3" font-family="Helvetica,sans-Serif" font-size="11.00">Vector</text>
</g>
<!-- multirad&#45;&gt;output_vec -->
<!-- checker -->
<g id="node13" class="node">
<title>checker</title>
<path fill="#ffecb3" stroke="black" d="M895.12,-60C895.12,-60 846.88,-60 846.88,-60 840.88,-60 834.88,-54 834.88,-48 834.88,-48 834.88,-36 834.88,-36 834.88,-30 840.88,-24 846.88,-24 846.88,-24 895.12,-24 895.12,-24 901.12,-24 907.12,-30 907.12,-36 907.12,-36 907.12,-48 907.12,-48 907.12,-54 901.12,-60 895.12,-60"/>
<text text-anchor="middle" x="871" y="-45.05" font-family="Helvetica,sans-Serif" font-size="11.00">Checksum</text>
<text text-anchor="middle" x="871" y="-31.55" font-family="Helvetica,sans-Serif" font-size="11.00">Verifier</text>
</g>
<!-- multirad&#45;&gt;checker -->
<!-- arducopter -->
<g id="node14" class="node">
<title>arducopter</title>
<path fill="#f8bbd0" stroke="#c2185b" d="M1139.12,-300.75C1139.12,-300.75 1084.88,-300.75 1084.88,-300.75 1078.88,-300.75 1072.88,-294.75 1072.88,-288.75 1072.88,-288.75 1072.88,-276.75 1072.88,-276.75 1072.88,-270.75 1078.88,-264.75 1084.88,-264.75 1084.88,-264.75 1139.12,-264.75 1139.12,-264.75 1145.12,-264.75 1151.12,-270.75 1151.12,-276.75 1151.12,-276.75 1151.12,-288.75 1151.12,-288.75 1151.12,-294.75 1145.12,-300.75 1139.12,-300.75"/>
<text text-anchor="middle" x="1112" y="-285.8" font-family="Helvetica,sans-Serif" font-size="11.00">ArduCopter</text>
<text text-anchor="middle" x="1112" y="-272.3" font-family="Helvetica,sans-Serif" font-size="11.00">Firmware</text>
</g>
<!-- multirad&#45;&gt;arducopter -->
<g id="edge16" class="edge">
<title>multirad&#45;&gt;arducopter</title>
<path fill="none" stroke="#f57c00" d="M946.37,-282C946.37,-282 1060.9,-282 1060.9,-282"/>
<polygon fill="#f57c00" stroke="#f57c00" points="1060.9,-285.5 1070.9,-282 1060.9,-278.5 1060.9,-285.5"/>
</g>
<!-- output_vec&#45;&gt;checker -->
<g id="edge19" class="edge">
<title>output_vec&#45;&gt;checker</title>
<path fill="none" stroke="#f57c00" d="M880,-130.64C880,-130.64 880,-71.71 880,-71.71"/>
<polygon fill="#f57c00" stroke="#f57c00" points="883.5,-71.71 880,-61.71 876.5,-71.71 883.5,-71.71"/>
<text text-anchor="middle" x="885.38" y="-92.25" font-family="Helvetica,sans-Serif" font-size="10.00" fill="#f57c00">compare</text>
</g>
<!-- checker&#45;&gt;multirad -->
<g id="edge20" class="edge">
<title>checker&#45;&gt;multirad</title>
<path fill="none" stroke="#f57c00" stroke-dasharray="5,2" d="M907.45,-48C920.95,-48 933.04,-48 933.04,-48 933.04,-48 933.04,-252.82 933.04,-252.82"/>
<polygon fill="#f57c00" stroke="#f57c00" points="929.54,-252.82 933.04,-262.82 936.54,-252.82 929.54,-252.82"/>
<text text-anchor="middle" x="1030.88" y="-145.62" font-family="Helvetica,sans-Serif" font-size="10.00" fill="#f57c00">result</text>
</g>
<!-- arducopter&#45;&gt;output_vec -->
<g id="edge18" class="edge">
<title>arducopter&#45;&gt;output_vec</title>
<path fill="none" stroke="#c2185b" stroke-dasharray="5,2" d="M1076.88,-264.3C1076.88,-227.39 1076.88,-148 1076.88,-148 1076.88,-148 918.89,-148 918.89,-148"/>
<polygon fill="#c2185b" stroke="#c2185b" points="918.89,-144.5 908.89,-148 918.89,-151.5 918.89,-144.5"/>
<text text-anchor="middle" x="1082" y="-226.25" font-family="Helvetica,sans-Serif" font-size="10.00" fill="#c2185b">status</text>
<text text-anchor="middle" x="1082" y="-213.5" font-family="Helvetica,sans-Serif" font-size="10.00" fill="#c2185b">flags</text>
</g>
<!-- pos_ekf -->
<g id="node15" class="node">
<title>pos_ekf</title>
<path fill="#f48fb1" stroke="black" d="M1321.38,-166.75C1321.38,-166.75 1286.62,-166.75 1286.62,-166.75 1280.62,-166.75 1274.62,-160.75 1274.62,-154.75 1274.62,-154.75 1274.62,-142.75 1274.62,-142.75 1274.62,-136.75 1280.62,-130.75 1286.62,-130.75 1286.62,-130.75 1321.38,-130.75 1321.38,-130.75 1327.38,-130.75 1333.38,-136.75 1333.38,-142.75 1333.38,-142.75 1333.38,-154.75 1333.38,-154.75 1333.38,-160.75 1327.38,-166.75 1321.38,-166.75"/>
<text text-anchor="middle" x="1304" y="-151.8" font-family="Helvetica,sans-Serif" font-size="11.00">Position</text>
<text text-anchor="middle" x="1304" y="-138.3" font-family="Helvetica,sans-Serif" font-size="11.00">EKF</text>
</g>
<!-- arducopter&#45;&gt;pos_ekf -->
<!-- att_ekf -->
<g id="node16" class="node">
<title>att_ekf</title>
<path fill="#f48fb1" stroke="black" d="M1129.12,-166.75C1129.12,-166.75 1092.88,-166.75 1092.88,-166.75 1086.88,-166.75 1080.88,-160.75 1080.88,-154.75 1080.88,-154.75 1080.88,-142.75 1080.88,-142.75 1080.88,-136.75 1086.88,-130.75 1092.88,-130.75 1092.88,-130.75 1129.12,-130.75 1129.12,-130.75 1135.12,-130.75 1141.12,-136.75 1141.12,-142.75 1141.12,-142.75 1141.12,-154.75 1141.12,-154.75 1141.12,-160.75 1135.12,-166.75 1129.12,-166.75"/>
<text text-anchor="middle" x="1111" y="-151.8" font-family="Helvetica,sans-Serif" font-size="11.00">Attitude</text>
<text text-anchor="middle" x="1111" y="-138.3" font-family="Helvetica,sans-Serif" font-size="11.00">EKF</text>
</g>
<!-- arducopter&#45;&gt;att_ekf -->
<!-- mag_ekf -->
<g id="node17" class="node">
<title>mag_ekf</title>
<path fill="#f48fb1" stroke="black" d="M1226.5,-166.75C1226.5,-166.75 1189.5,-166.75 1189.5,-166.75 1183.5,-166.75 1177.5,-160.75 1177.5,-154.75 1177.5,-154.75 1177.5,-142.75 1177.5,-142.75 1177.5,-136.75 1183.5,-130.75 1189.5,-130.75 1189.5,-130.75 1226.5,-130.75 1226.5,-130.75 1232.5,-130.75 1238.5,-136.75 1238.5,-142.75 1238.5,-142.75 1238.5,-154.75 1238.5,-154.75 1238.5,-160.75 1232.5,-166.75 1226.5,-166.75"/>
<text text-anchor="middle" x="1208" y="-151.8" font-family="Helvetica,sans-Serif" font-size="11.00">Heading</text>
<text text-anchor="middle" x="1208" y="-138.3" font-family="Helvetica,sans-Serif" font-size="11.00">EKF</text>
</g>
<!-- arducopter&#45;&gt;mag_ekf -->
<!-- radiation -->
<g id="node18" class="node">
<title>radiation</title>
<polygon fill="#ffcdd2" stroke="#d32f2f" stroke-dasharray="5,2" points="1145.88,-441 1078.12,-441 1078.12,-405 1145.88,-405 1145.88,-441"/>
<text text-anchor="middle" x="1112" y="-426.05" font-family="Helvetica,sans-Serif" font-size="11.00">Ionizing</text>
<text text-anchor="middle" x="1112" y="-412.55" font-family="Helvetica,sans-Serif" font-size="11.00">Radiation</text>
</g>
<!-- radiation&#45;&gt;arducopter -->
<g id="edge17" class="edge">
<title>radiation&#45;&gt;arducopter</title>
<path fill="none" stroke="#d32f2f" stroke-dasharray="5,2" d="M1112,-404.66C1112,-404.66 1112,-312.6 1112,-312.6"/>
<polygon fill="#d32f2f" stroke="#d32f2f" points="1115.5,-312.6 1112,-302.6 1108.5,-312.6 1115.5,-312.6"/>
<text text-anchor="middle" x="1130" y="-353.88" font-family="Helvetica,sans-Serif" font-size="10.00" fill="#d32f2f">bit flips</text>
</g>
</g>
</svg>
